<svg width="246" height="85" viewBox="0 0 246 85" fill="none" xmlns="http://www.w3.org/2000/svg">
<path d="M245.022 5.58561C245.292 5.64221 245.557 5.46898 245.613 5.1987C245.67 4.92842 245.497 4.66344 245.226 4.60684L245.124 5.09622L245.022 5.58561ZM0.124023 80.2238L0.000162654 80.7082C29.1184 88.1535 49.8555 85.2394 66.8758 77.12C83.8617 69.0169 97.111 55.7389 111.248 42.5875C125.404 29.418 140.482 16.3396 161.19 8.46069C181.889 0.585361 208.263 -2.1119 245.022 5.58561L245.124 5.09622L245.226 4.60684C208.321 -3.1215 181.747 -0.430493 160.835 7.52606C139.932 15.479 124.734 28.6762 110.567 41.8553C96.3808 55.0524 83.2596 68.1962 66.4452 76.2174C49.6652 84.2223 29.1723 87.1351 0.247884 79.7394L0.124023 80.2238Z" fill="white"/>
</svg>
