<svg width="246" height="85" viewBox="0 0 246 85" fill="none" xmlns="http://www.w3.org/2000/svg">
<path d="M245.021 5.58561C245.291 5.64221 245.556 5.46898 245.612 5.1987C245.669 4.92842 245.496 4.66344 245.226 4.60684L245.123 5.09622L245.021 5.58561ZM0.123047 80.2238L-0.000813909 80.7082C29.1174 88.1535 49.8546 85.2394 66.8748 77.12C83.8607 69.0169 97.11 55.7389 111.247 42.5875C125.403 29.418 140.481 16.3396 161.19 8.46069C181.888 0.585361 208.262 -2.1119 245.021 5.58561L245.123 5.09622L245.226 4.60684C208.32 -3.1215 181.746 -0.430493 160.834 7.52606C139.931 15.479 124.733 28.6762 110.566 41.8553C96.3798 55.0524 83.2586 68.1962 66.4443 76.2174C49.6642 84.2223 29.1713 87.1351 0.246908 79.7394L0.123047 80.2238Z" fill="#223C3B"/>
</svg>
